<?xml version="1.0" encoding="UTF-8" standalone="no" ?>
<!DOCTYPE svg PUBLIC "-//W3C//DTD SVG 1.1//EN" "http://www.w3.org/Graphics/SVG/1.1/DTD/svg11.dtd">
<svg xmlns="http://www.w3.org/2000/svg" xmlns:xlink="http://www.w3.org/1999/xlink" version="1.1" width="390.53163769039975" height="301.4871044467425" viewBox="60.56469186150491 111.05000000000001 390.53163769039975 301.4871044467425" xml:space="preserve">
<desc>Created with Fabric.js 4.6.0</desc>
<defs>
</defs>
<g transform="matrix(1 0 0 1 258.63 180.53)" id="zS0KUvgziWC913lEPjsMg"  >
<g style="" vector-effect="non-scaling-stroke"   >
		<g transform="matrix(0.97 0 0 0.87 -7.53 17.81)" id="BHdFsjLdgR5EAHmv13no2"  >
<path style="stroke: rgb(0,0,0); stroke-width: 3; stroke-dasharray: none; stroke-linecap: butt; stroke-dashoffset: 0; stroke-linejoin: miter; stroke-miterlimit: 4; fill: rgb(252,134,29); fill-rule: nonzero; opacity: 1;" vector-effect="non-scaling-stroke"  transform=" translate(0, 0)" d="M -54.34959 26.17253 L -62.561769999999996 -33.1028 L -44.571299999999994 -57.75236 L 62.56177000000001 -51.37957 L 62.56177000000001 57.752340000000004 L -24.45760999999999 57.752340000000004 z" stroke-linecap="round" />
</g>
		<g transform="matrix(1 0 0 1 -13.39 -19.29)" id="8fwZ_FkDdOST1bEkYznIc"  >
<path style="stroke: rgb(0,0,0); stroke-width: 3; stroke-dasharray: none; stroke-linecap: butt; stroke-dashoffset: 0; stroke-linejoin: miter; stroke-miterlimit: 4; fill: rgb(252,134,29); fill-rule: nonzero; opacity: 1;" vector-effect="non-scaling-stroke"  transform=" translate(0, 0)" d="M -16.48805 -29.49091 L 9.49504 -43.127269999999996 L 16.48805 33.205470000000005 L -7.590920000000001 43.127280000000006 z" stroke-linecap="round" />
</g>
		<g transform="matrix(1 0 0 0.95 11.9 -26.82)" id="df59GSFB6OEBDpSlDytig"  >
<path style="stroke: rgb(0,0,0); stroke-width: 3; stroke-dasharray: none; stroke-linecap: butt; stroke-dashoffset: 0; stroke-linejoin: miter; stroke-miterlimit: 4; fill: rgb(252,134,29); fill-rule: nonzero; opacity: 1;" vector-effect="non-scaling-stroke"  transform=" translate(0, 0)" d="M -14.96893 -30.27553 L 9.703969999999998 -43.49804 L 14.968929999999999 32.83346 L -8.80729 43.49804 z" stroke-linecap="round" />
</g>
		<g transform="matrix(1.23 0 0 1.54 50.32 -20.16)" id="Zg57ez_zGNN7TfLXdzPJV"  >
<path style="stroke: rgb(0,0,0); stroke-width: 3; stroke-dasharray: none; stroke-linecap: butt; stroke-dashoffset: 0; stroke-linejoin: miter; stroke-miterlimit: 4; fill: rgb(252,134,29); fill-rule: nonzero; opacity: 1;" vector-effect="non-scaling-stroke"  transform=" translate(0, 0)" d="M -14.70588 -14.70588 L 14.70589 -14.70588 L 14.70589 14.70589 L -14.70588 14.70589 z" stroke-linecap="round" />
</g>
		<g transform="matrix(1 0 0 1 35.46 -31.66)" id="OFJNz386vSBOY9LyrcAiW"  >
<path style="stroke: rgb(0,0,0); stroke-width: 3; stroke-dasharray: none; stroke-linecap: butt; stroke-dashoffset: 0; stroke-linejoin: miter; stroke-miterlimit: 4; fill: rgb(252,134,29); fill-rule: nonzero; opacity: 1;" vector-effect="non-scaling-stroke"  transform=" translate(0, 0)" d="M -13.03395 -26.0833 L 7.439540000000001 -36.31114 L 13.03395 26.90768 L -8.83814 36.31116 z" stroke-linecap="round" />
</g>
		<g transform="matrix(1 0 0 1 -36.98 -17.98)" id="bCF6G4H6OyFSyuOrrdeMY"  >
<path style="stroke: rgb(0,0,0); stroke-width: 3; stroke-dasharray: none; stroke-linecap: butt; stroke-dashoffset: 0; stroke-linejoin: miter; stroke-miterlimit: 4; fill: rgb(252,134,29); fill-rule: nonzero; opacity: 1;" vector-effect="non-scaling-stroke"  transform=" translate(0, 0)" d="M -15.9975 -28.14481 L 6.207279999999999 -41.8187 L 15.997489999999999 41.81871 L -9.35415 36.74114 z" stroke-linecap="round" />
</g>
</g>
</g>
<g transform="matrix(1 0 0 1 383.63 322.27)" id="hwM1dWQ8Z5dM0_pH0Wg3m"  >
<g style="" vector-effect="non-scaling-stroke"   >
		<g transform="matrix(0.92 0 0 0.82 -15.52 43)" id="fPXQW9JDsk-RUahdFtgFo"  >
<path style="stroke: rgb(0,0,0); stroke-width: 3; stroke-dasharray: none; stroke-linecap: butt; stroke-dashoffset: 0; stroke-linejoin: miter; stroke-miterlimit: 4; fill: rgb(75,94,229); fill-rule: nonzero; opacity: 1;" vector-effect="non-scaling-stroke"  transform=" translate(0, 0)" d="M -52.29715 25.247 L -54.83591 -23.45583 L -46.91244 -53.06241 L 54.835910000000005 -47.08986 L 53.43872 0.9065799999999982 L 35.90927000000001 47.681529999999995 L -23.72688999999999 53.062439999999995 z" stroke-linecap="round" />
</g>
		<g transform="matrix(1 0 0 1 -30.03 -34.83)" id="6f0XQPGn1UOzGRMBg7gtD"  >
<path style="stroke: rgb(0,0,0); stroke-width: 3; stroke-dasharray: none; stroke-linecap: butt; stroke-dashoffset: 0; stroke-linejoin: miter; stroke-miterlimit: 4; fill: rgb(75,94,229); fill-rule: nonzero; opacity: 1;" vector-effect="non-scaling-stroke"  transform=" translate(0, 0)" d="M -14.27403 -26.8995 L 11.202390000000001 -36.4936 L 14.274030000000002 36.49359 L -11.803969999999998 36.49359 z" stroke-linecap="round" />
</g>
		<g transform="matrix(1 0 0 0.95 -5.26 -41.67)" id="8L6Wt795KHyhgfk8fCKxj"  >
<path style="stroke: rgb(0,0,0); stroke-width: 3; stroke-dasharray: none; stroke-linecap: butt; stroke-dashoffset: 0; stroke-linejoin: miter; stroke-miterlimit: 4; fill: rgb(75,94,229); fill-rule: nonzero; opacity: 1;" vector-effect="non-scaling-stroke"  transform=" translate(0, 0)" d="M -13.57671 -35.67532 L 9.445649999999999 -47.2007 L 13.576709999999999 47.2007 L -9.092500000000001 45.62175 z" stroke-linecap="round" />
</g>
		<g transform="matrix(1.23 0 0 0.65 49.54 14.1)" id="tsRPeprz83tVJAhjCVJdQ"  >
<path style="stroke: rgb(0,0,0); stroke-width: 3; stroke-dasharray: none; stroke-linecap: butt; stroke-dashoffset: 0; stroke-linejoin: miter; stroke-miterlimit: 4; fill: rgb(75,94,229); fill-rule: nonzero; opacity: 1;" vector-effect="non-scaling-stroke"  transform=" translate(0, 0)" d="M -11.85586 -12.16141 L 13.35587 -40.99883 L 13.35587 -12.161409999999997 L -13.35587 40.998830000000005 z" stroke-linecap="round" />
</g>
		<g transform="matrix(1 0 0 1 19.85 -34.3)" id="k4gGsH9ABnBDyat5JRelr"  >
<path style="stroke: rgb(0,0,0); stroke-width: 3; stroke-dasharray: none; stroke-linecap: butt; stroke-dashoffset: 0; stroke-linejoin: miter; stroke-miterlimit: 4; fill: rgb(75,94,229); fill-rule: nonzero; opacity: 1;" vector-effect="non-scaling-stroke"  transform=" translate(0, 0)" d="M -14.15529 -35.65127 L 12.0855 -45.14111 L 14.1553 45.14111 L -11.500250000000001 37.46827 z" stroke-linecap="round" />
</g>
		<g transform="matrix(1 0 0 1 -52.88 -18.32)" id="3qRsYV76HZJVmhdDGSBfm"  >
<path style="stroke: rgb(0,0,0); stroke-width: 3; stroke-dasharray: none; stroke-linecap: butt; stroke-dashoffset: 0; stroke-linejoin: miter; stroke-miterlimit: 4; fill: rgb(75,94,229); fill-rule: nonzero; opacity: 1;" vector-effect="non-scaling-stroke"  transform=" translate(0, 0)" d="M -11.38495 -23.35656 L 7.069880000000001 -39.00904 L 11.384950000000002 19.98411 L -11.384949999999998 39.00905 z" stroke-linecap="round" />
</g>
</g>
</g>
<g transform="matrix(1 0 0 1 129.49 311.47)" id="NLQhHBsyfitwAcChbm3VY"  >
<g style="" vector-effect="non-scaling-stroke"   >
		<g transform="matrix(0.97 0 0 0.87 -6.74 49.33)" id="4ELG4CQ59etWfi3iJfO36"  >
<path style="stroke: rgb(0,0,0); stroke-width: 3; stroke-dasharray: none; stroke-linecap: butt; stroke-dashoffset: 0; stroke-linejoin: miter; stroke-miterlimit: 4; fill: rgb(72,204,99); fill-rule: nonzero; opacity: 1;" vector-effect="non-scaling-stroke"  transform=" translate(0, 0)" d="M -54.34959 26.17253 L -62.561769999999996 -33.1028 L -44.571299999999994 -57.75236 L 62.56177000000001 -51.37957 L 62.56177000000001 57.752340000000004 L -24.45760999999999 57.752340000000004 z" stroke-linecap="round" />
</g>
		<g transform="matrix(2.33 0 0 1.28 33.16 23.58)" id="_ZlGeXkoM9CKyCKwZ52mA"  >
<path style="stroke: rgb(0,0,0); stroke-width: 3; stroke-dasharray: none; stroke-linecap: butt; stroke-dashoffset: 0; stroke-linejoin: miter; stroke-miterlimit: 4; fill: rgb(72,204,99); fill-rule: nonzero; opacity: 1;" vector-effect="non-scaling-stroke"  transform=" translate(0, 0)" d="M -14.70588 -14.70588 L 14.70589 -14.70588 L 14.70589 14.70589 L -14.70588 14.70589 z" stroke-linecap="round" />
</g>
		<g transform="matrix(1 0 0 1 -12.6 12.23)" id="pVZ2_XU2RBxIKvrX-5ZHI"  >
<path style="stroke: rgb(0,0,0); stroke-width: 3; stroke-dasharray: none; stroke-linecap: butt; stroke-dashoffset: 0; stroke-linejoin: miter; stroke-miterlimit: 4; fill: rgb(72,204,99); fill-rule: nonzero; opacity: 1;" vector-effect="non-scaling-stroke"  transform=" translate(0, 0)" d="M -16.48805 -29.49091 L 9.49504 -43.127269999999996 L 16.48805 33.205470000000005 L -7.590920000000001 43.127280000000006 z" stroke-linecap="round" />
</g>
		<g transform="matrix(1 0 0 0.46 10.12 -43.09)" id="fhajdakmvoOWfJh_TgGWK"  >
<path style="stroke: rgb(0,0,0); stroke-width: 3; stroke-dasharray: none; stroke-linecap: butt; stroke-dashoffset: 0; stroke-linejoin: miter; stroke-miterlimit: 4; fill: rgb(72,204,99); fill-rule: nonzero; opacity: 1;" vector-effect="non-scaling-stroke"  transform=" translate(0, 0)" d="M -16.857 -69.18852 L 7.139980000000001 -101.11918 L 16.857 101.11918 L -9.65895 101.11918 z" stroke-linecap="round" />
</g>
		<g transform="matrix(1 0 0 1 36.59 -48.19)" id="mO8PwWYzyFEe8S5v3Ct7E"  >
<path style="stroke: rgb(0,0,0); stroke-width: 3; stroke-dasharray: none; stroke-linecap: butt; stroke-dashoffset: 0; stroke-linejoin: miter; stroke-miterlimit: 4; fill: rgb(72,204,99); fill-rule: nonzero; opacity: 1;" vector-effect="non-scaling-stroke"  transform=" translate(0, 0)" d="M -18.86237 -42.67322 L 3.323450000000001 -51.37964 L 18.862360000000002 51.37964 L -8.844649999999998 51.37964 z" stroke-linecap="round" />
</g>
		<g transform="matrix(1 0 0 0.92 -36.19 16.76)" id="9qZXRSITT11V-ZkMTfPDi"  >
<path style="stroke: rgb(0,0,0); stroke-width: 3; stroke-dasharray: none; stroke-linecap: butt; stroke-dashoffset: 0; stroke-linejoin: miter; stroke-miterlimit: 4; fill: rgb(72,204,99); fill-rule: nonzero; opacity: 1;" vector-effect="non-scaling-stroke"  transform=" translate(0, 0)" d="M -15.9975 -28.14481 L 6.207279999999999 -41.8187 L 15.997489999999999 41.81871 L -9.35415 36.74114 z" stroke-linecap="round" />
</g>
</g>
</g>
</svg>