<?xml version="1.0" encoding="UTF-8" standalone="no" ?>
<!DOCTYPE svg PUBLIC "-//W3C//DTD SVG 1.1//EN" "http://www.w3.org/Graphics/SVG/1.1/DTD/svg11.dtd">
<svg xmlns="http://www.w3.org/2000/svg" xmlns:xlink="http://www.w3.org/1999/xlink" version="1.1" width="129.57113776944976" height="114.09794421681198" viewBox="184.90939565485905 249.99999950950385 129.57113776944976 114.09794421681198" xml:space="preserve">
<desc>Created with Fabric.js 4.6.0</desc>
<defs>
</defs>
<g transform="matrix(-0.57 0.48 0.48 0.57 218.95 282.91)" id="k-jvuuKUnYjgpkcgMIQvS"  >
<path style="stroke: none; stroke-width: 1; stroke-dasharray: none; stroke-linecap: butt; stroke-dashoffset: 0; stroke-linejoin: miter; stroke-miterlimit: 4; fill: rgb(1,1,1); fill-rule: nonzero; opacity: 1;" vector-effect="non-scaling-stroke"  transform=" translate(0, 0)" d="M -5.69454 25.14018 L 37.47305 15.496410000000001 L 20.84214 -25.140179999999997 L 11.053230000000001 -8.382949999999997 L -14.55598 -24.903329999999997 L -37.47305 -14.579899999999997 L -37.47305 9.267100000000005 L -14.529220000000002 -1.5514099999999953 L 3.6969499999999975 9.267100000000005 z" stroke-linecap="round" />
</g>
<g transform="matrix(0.74 0 0 -0.74 260.88 344.99)" id="0eBl1aRnvZqQ7g11Q2B1o"  >
<path style="stroke: none; stroke-width: 1; stroke-dasharray: none; stroke-linecap: butt; stroke-dashoffset: 0; stroke-linejoin: miter; stroke-miterlimit: 4; fill: rgb(1,1,1); fill-rule: nonzero; opacity: 1;" vector-effect="non-scaling-stroke"  transform=" translate(0, 0)" d="M -5.69454 25.14018 L 37.47305 15.496410000000001 L 20.84214 -25.140179999999997 L 11.053230000000001 -8.382949999999997 L -14.55598 -24.903329999999997 L -37.47305 -14.579899999999997 L -37.47305 9.267100000000005 L -14.529220000000002 -1.5514099999999953 L 3.6969499999999975 9.267100000000005 z" stroke-linecap="round" />
</g>
<g transform="matrix(-0.18 -0.72 -0.72 0.18 289.11 283.81)" id="Tx9fMVwW17lCQvXAC6X1A"  >
<path style="stroke: none; stroke-width: 1; stroke-dasharray: none; stroke-linecap: butt; stroke-dashoffset: 0; stroke-linejoin: miter; stroke-miterlimit: 4; fill: rgb(1,1,1); fill-rule: nonzero; opacity: 1;" vector-effect="non-scaling-stroke"  transform=" translate(0, 0)" d="M -5.69454 25.14018 L 37.47305 15.496410000000001 L 20.84214 -25.140179999999997 L 11.053230000000001 -8.382949999999997 L -14.55598 -24.903329999999997 L -37.47305 -14.579899999999997 L -37.47305 9.267100000000005 L -14.529220000000002 -1.5514099999999953 L 3.6969499999999975 9.267100000000005 z" stroke-linecap="round" />
</g>
</svg>