<?xml version="1.0" encoding="UTF-8" standalone="no" ?>
<!DOCTYPE svg PUBLIC "-//W3C//DTD SVG 1.1//EN" "http://www.w3.org/Graphics/SVG/1.1/DTD/svg11.dtd">
<svg xmlns="http://www.w3.org/2000/svg" xmlns:xlink="http://www.w3.org/1999/xlink" version="1.1" width="139.81" height="138.95" viewBox="55.875 44.28500000000001 139.81 138.95" xml:space="preserve">
<desc>Created with Fabric.js 4.6.0</desc>
<defs>
</defs>
<g transform="matrix(1 0 0 1 125.78 113.76)" id="zS0KUvgziWC913lEPjsMg"  >
<g style="" vector-effect="non-scaling-stroke"   >
		<g transform="matrix(0.97 0 0 0.87 -7.53 17.81)" id="BHdFsjLdgR5EAHmv13no2"  >
<path style="stroke: rgb(0,0,0); stroke-width: 3; stroke-dasharray: none; stroke-linecap: butt; stroke-dashoffset: 0; stroke-linejoin: miter; stroke-miterlimit: 4; fill: rgb(252,134,29); fill-rule: nonzero; opacity: 1;" vector-effect="non-scaling-stroke"  transform=" translate(0, 0)" d="M -54.34959 26.17253 L -62.561769999999996 -33.1028 L -44.571299999999994 -57.75236 L 62.56177000000001 -51.37957 L 62.56177000000001 57.752340000000004 L -24.45760999999999 57.752340000000004 z" stroke-linecap="round" />
</g>
		<g transform="matrix(1 0 0 1 -13.39 -19.29)" id="8fwZ_FkDdOST1bEkYznIc"  >
<path style="stroke: rgb(0,0,0); stroke-width: 3; stroke-dasharray: none; stroke-linecap: butt; stroke-dashoffset: 0; stroke-linejoin: miter; stroke-miterlimit: 4; fill: rgb(252,134,29); fill-rule: nonzero; opacity: 1;" vector-effect="non-scaling-stroke"  transform=" translate(0, 0)" d="M -16.48805 -29.49091 L 9.49504 -43.127269999999996 L 16.48805 33.205470000000005 L -7.590920000000001 43.127280000000006 z" stroke-linecap="round" />
</g>
		<g transform="matrix(1 0 0 0.95 11.9 -26.82)" id="df59GSFB6OEBDpSlDytig"  >
<path style="stroke: rgb(0,0,0); stroke-width: 3; stroke-dasharray: none; stroke-linecap: butt; stroke-dashoffset: 0; stroke-linejoin: miter; stroke-miterlimit: 4; fill: rgb(252,134,29); fill-rule: nonzero; opacity: 1;" vector-effect="non-scaling-stroke"  transform=" translate(0, 0)" d="M -14.96893 -30.27553 L 9.703969999999998 -43.49804 L 14.968929999999999 32.83346 L -8.80729 43.49804 z" stroke-linecap="round" />
</g>
		<g transform="matrix(1.23 0 0 1.54 50.32 -20.16)" id="Zg57ez_zGNN7TfLXdzPJV"  >
<path style="stroke: rgb(0,0,0); stroke-width: 3; stroke-dasharray: none; stroke-linecap: butt; stroke-dashoffset: 0; stroke-linejoin: miter; stroke-miterlimit: 4; fill: rgb(252,134,29); fill-rule: nonzero; opacity: 1;" vector-effect="non-scaling-stroke"  transform=" translate(0, 0)" d="M -14.70588 -14.70588 L 14.70589 -14.70588 L 14.70589 14.70589 L -14.70588 14.70589 z" stroke-linecap="round" />
</g>
		<g transform="matrix(1 0 0 1 35.46 -31.66)" id="OFJNz386vSBOY9LyrcAiW"  >
<path style="stroke: rgb(0,0,0); stroke-width: 3; stroke-dasharray: none; stroke-linecap: butt; stroke-dashoffset: 0; stroke-linejoin: miter; stroke-miterlimit: 4; fill: rgb(252,134,29); fill-rule: nonzero; opacity: 1;" vector-effect="non-scaling-stroke"  transform=" translate(0, 0)" d="M -13.03395 -26.0833 L 7.439540000000001 -36.31114 L 13.03395 26.90768 L -8.83814 36.31116 z" stroke-linecap="round" />
</g>
		<g transform="matrix(1 0 0 1 -36.98 -17.98)" id="bCF6G4H6OyFSyuOrrdeMY"  >
<path style="stroke: rgb(0,0,0); stroke-width: 3; stroke-dasharray: none; stroke-linecap: butt; stroke-dashoffset: 0; stroke-linejoin: miter; stroke-miterlimit: 4; fill: rgb(252,134,29); fill-rule: nonzero; opacity: 1;" vector-effect="non-scaling-stroke"  transform=" translate(0, 0)" d="M -15.9975 -28.14481 L 6.207279999999999 -41.8187 L 15.997489999999999 41.81871 L -9.35415 36.74114 z" stroke-linecap="round" />
</g>
</g>
</g>
</svg>