<?xml version="1.0" encoding="UTF-8" standalone="no" ?>
<!DOCTYPE svg PUBLIC "-//W3C//DTD SVG 1.1//EN" "http://www.w3.org/Graphics/SVG/1.1/DTD/svg11.dtd">
<svg xmlns="http://www.w3.org/2000/svg" xmlns:xlink="http://www.w3.org/1999/xlink" version="1.1" width="134.73" height="176.13" viewBox="295.775 109.36500000000001 134.73 176.13" xml:space="preserve">
<desc>Created with Fabric.js 4.6.0</desc>
<defs>
</defs>
<g transform="matrix(1 0 0 1 363.14 197.43)" id="eKhkdV-i3KhGLtCIBvTar"  >
<g style="" vector-effect="non-scaling-stroke"   >
		<g transform="matrix(0.92 0 0 0.82 -15.62 42.95)" id="fPXQW9JDsk-RUahdFtgFo"  >
<path style="stroke: rgb(0,0,0); stroke-width: 3; stroke-dasharray: none; stroke-linecap: butt; stroke-dashoffset: 0; stroke-linejoin: miter; stroke-miterlimit: 4; fill: rgb(75,94,229); fill-rule: nonzero; opacity: 1;" vector-effect="non-scaling-stroke"  transform=" translate(0, 0)" d="M -52.29715 25.247 L -54.83591 -23.45583 L -46.91244 -53.06241 L 54.835910000000005 -47.08986 L 53.43872 0.9065799999999982 L 35.90927000000001 47.681529999999995 L -23.72688999999999 53.062439999999995 z" stroke-linecap="round" />
</g>
		<g transform="matrix(1 0 0 1 -30.13 -34.88)" id="6f0XQPGn1UOzGRMBg7gtD"  >
<path style="stroke: rgb(0,0,0); stroke-width: 3; stroke-dasharray: none; stroke-linecap: butt; stroke-dashoffset: 0; stroke-linejoin: miter; stroke-miterlimit: 4; fill: rgb(75,94,229); fill-rule: nonzero; opacity: 1;" vector-effect="non-scaling-stroke"  transform=" translate(0, 0)" d="M -14.27403 -26.8995 L 11.202390000000001 -36.4936 L 14.274030000000002 36.49359 L -11.803969999999998 36.49359 z" stroke-linecap="round" />
</g>
		<g transform="matrix(1 0 0 0.95 -5.36 -41.72)" id="8L6Wt795KHyhgfk8fCKxj"  >
<path style="stroke: rgb(0,0,0); stroke-width: 3; stroke-dasharray: none; stroke-linecap: butt; stroke-dashoffset: 0; stroke-linejoin: miter; stroke-miterlimit: 4; fill: rgb(75,94,229); fill-rule: nonzero; opacity: 1;" vector-effect="non-scaling-stroke"  transform=" translate(0, 0)" d="M -13.57671 -35.67532 L 9.445649999999999 -47.2007 L 13.576709999999999 47.2007 L -9.092500000000001 45.62175 z" stroke-linecap="round" />
</g>
		<g transform="matrix(1.23 0 0 0.65 49.44 14.05)" id="tsRPeprz83tVJAhjCVJdQ"  >
<path style="stroke: rgb(0,0,0); stroke-width: 3; stroke-dasharray: none; stroke-linecap: butt; stroke-dashoffset: 0; stroke-linejoin: miter; stroke-miterlimit: 4; fill: rgb(75,94,229); fill-rule: nonzero; opacity: 1;" vector-effect="non-scaling-stroke"  transform=" translate(0, 0)" d="M -11.85586 -12.16141 L 13.35587 -40.99883 L 13.35587 -12.161409999999997 L -13.35587 40.998830000000005 z" stroke-linecap="round" />
</g>
		<g transform="matrix(1 0 0 1 19.75 -34.35)" id="k4gGsH9ABnBDyat5JRelr"  >
<path style="stroke: rgb(0,0,0); stroke-width: 3; stroke-dasharray: none; stroke-linecap: butt; stroke-dashoffset: 0; stroke-linejoin: miter; stroke-miterlimit: 4; fill: rgb(75,94,229); fill-rule: nonzero; opacity: 1;" vector-effect="non-scaling-stroke"  transform=" translate(0, 0)" d="M -14.15529 -35.65127 L 12.0855 -45.14111 L 14.1553 45.14111 L -11.500250000000001 37.46827 z" stroke-linecap="round" />
</g>
		<g transform="matrix(1 0 0 1 -52.98 -18.37)" id="3qRsYV76HZJVmhdDGSBfm"  >
<path style="stroke: rgb(0,0,0); stroke-width: 3; stroke-dasharray: none; stroke-linecap: butt; stroke-dashoffset: 0; stroke-linejoin: miter; stroke-miterlimit: 4; fill: rgb(75,94,229); fill-rule: nonzero; opacity: 1;" vector-effect="non-scaling-stroke"  transform=" translate(0, 0)" d="M -11.38495 -23.35656 L 7.069880000000001 -39.00904 L 11.384950000000002 19.98411 L -11.384949999999998 39.00905 z" stroke-linecap="round" />
</g>
</g>
</g>
</svg>