<?xml version="1.0" encoding="UTF-8" standalone="no" ?>
<!DOCTYPE svg PUBLIC "-//W3C//DTD SVG 1.1//EN" "http://www.w3.org/Graphics/SVG/1.1/DTD/svg11.dtd">
<svg xmlns="http://www.w3.org/2000/svg" xmlns:xlink="http://www.w3.org/1999/xlink" version="1.1" width="137.8" height="202.14" viewBox="74.18 229.03000000000003 137.8 202.14" xml:space="preserve">
<desc>Created with Fabric.js 4.6.0</desc>
<defs>
</defs>
<g transform="matrix(1 0 0 1 143.08 330.1)" id="F5TiO0qBmfGJ9hSqJ6e0-"  >
<g style="" vector-effect="non-scaling-stroke"   >
		<g transform="matrix(0.97 0 0 0.87 -6.72 49.33)" id="4ELG4CQ59etWfi3iJfO36"  >
<path style="stroke: rgb(0,0,0); stroke-width: 3; stroke-dasharray: none; stroke-linecap: butt; stroke-dashoffset: 0; stroke-linejoin: miter; stroke-miterlimit: 4; fill: rgb(72,204,99); fill-rule: nonzero; opacity: 1;" vector-effect="non-scaling-stroke"  transform=" translate(0, 0)" d="M -54.34959 26.17253 L -62.561769999999996 -33.1028 L -44.571299999999994 -57.75236 L 62.56177000000001 -51.37957 L 62.56177000000001 57.752340000000004 L -24.45760999999999 57.752340000000004 z" stroke-linecap="round" />
</g>
		<g transform="matrix(2.33 0 0 1.28 33.18 23.58)" id="_ZlGeXkoM9CKyCKwZ52mA"  >
<path style="stroke: rgb(0,0,0); stroke-width: 3; stroke-dasharray: none; stroke-linecap: butt; stroke-dashoffset: 0; stroke-linejoin: miter; stroke-miterlimit: 4; fill: rgb(72,204,99); fill-rule: nonzero; opacity: 1;" vector-effect="non-scaling-stroke"  transform=" translate(0, 0)" d="M -14.70588 -14.70588 L 14.70589 -14.70588 L 14.70589 14.70589 L -14.70588 14.70589 z" stroke-linecap="round" />
</g>
		<g transform="matrix(1 0 0 1 -12.58 12.23)" id="pVZ2_XU2RBxIKvrX-5ZHI"  >
<path style="stroke: rgb(0,0,0); stroke-width: 3; stroke-dasharray: none; stroke-linecap: butt; stroke-dashoffset: 0; stroke-linejoin: miter; stroke-miterlimit: 4; fill: rgb(72,204,99); fill-rule: nonzero; opacity: 1;" vector-effect="non-scaling-stroke"  transform=" translate(0, 0)" d="M -16.48805 -29.49091 L 9.49504 -43.127269999999996 L 16.48805 33.205470000000005 L -7.590920000000001 43.127280000000006 z" stroke-linecap="round" />
</g>
		<g transform="matrix(1 0 0 0.46 10.14 -43.09)" id="fhajdakmvoOWfJh_TgGWK"  >
<path style="stroke: rgb(0,0,0); stroke-width: 3; stroke-dasharray: none; stroke-linecap: butt; stroke-dashoffset: 0; stroke-linejoin: miter; stroke-miterlimit: 4; fill: rgb(72,204,99); fill-rule: nonzero; opacity: 1;" vector-effect="non-scaling-stroke"  transform=" translate(0, 0)" d="M -16.857 -69.18852 L 7.139980000000001 -101.11918 L 16.857 101.11918 L -9.65895 101.11918 z" stroke-linecap="round" />
</g>
		<g transform="matrix(1 0 0 1 36.61 -48.19)" id="mO8PwWYzyFEe8S5v3Ct7E"  >
<path style="stroke: rgb(0,0,0); stroke-width: 3; stroke-dasharray: none; stroke-linecap: butt; stroke-dashoffset: 0; stroke-linejoin: miter; stroke-miterlimit: 4; fill: rgb(72,204,99); fill-rule: nonzero; opacity: 1;" vector-effect="non-scaling-stroke"  transform=" translate(0, 0)" d="M -18.86237 -42.67322 L 3.323450000000001 -51.37964 L 18.862360000000002 51.37964 L -8.844649999999998 51.37964 z" stroke-linecap="round" />
</g>
		<g transform="matrix(1 0 0 0.92 -36.17 16.76)" id="9qZXRSITT11V-ZkMTfPDi"  >
<path style="stroke: rgb(0,0,0); stroke-width: 3; stroke-dasharray: none; stroke-linecap: butt; stroke-dashoffset: 0; stroke-linejoin: miter; stroke-miterlimit: 4; fill: rgb(72,204,99); fill-rule: nonzero; opacity: 1;" vector-effect="non-scaling-stroke"  transform=" translate(0, 0)" d="M -15.9975 -28.14481 L 6.207279999999999 -41.8187 L 15.997489999999999 41.81871 L -9.35415 36.74114 z" stroke-linecap="round" />
</g>
</g>
</g>
</svg>